<?xml version="1.0" standalone="no"?>
<!DOCTYPE svg PUBLIC "-//W3C//DTD SVG 20010904//EN"
 "http://www.w3.org/TR/2001/REC-SVG-20010904/DTD/svg10.dtd">
<svg version="1.0" xmlns="http://www.w3.org/2000/svg"
 width="601.000000pt" height="601.000000pt" viewBox="0 0 601.000000 601.000000"
 preserveAspectRatio="xMidYMid meet">
<metadata>
Created by potrace 1.14, written by Peter Selinger 2001-2017
</metadata>
<g transform="translate(0.000000,601.000000) scale(0.100000,-0.100000)"
fill="#000000" stroke="none">
<path d="M2710 5576 c-620 -79 -1155 -347 -1573 -787 -391 -410 -626 -912
-698 -1484 -16 -128 -16 -461 0 -590 102 -827 576 -1540 1293 -1950 280 -160
608 -269 948 -317 125 -17 525 -17 650 0 581 82 1084 327 1486 727 152 152
227 242 340 411 222 333 363 717 415 1129 18 146 16 474 -5 624 -102 754 -506
1402 -1136 1822 -151 101 -380 218 -545 277 -131 48 -359 105 -505 128 -143
22 -530 28 -670 10z m409 -2081 c177 -42 329 -194 371 -374 18 -76 8 -221 -19
-290 -82 -203 -297 -338 -507 -317 -264 27 -454 238 -454 505 1 317 298 549
609 476z m-925 -727 c35 -125 112 -255 210 -354 109 -109 242 -185 391 -225
96 -25 287 -31 380 -10 204 45 390 166 514 335 50 67 114 199 131 269 l12 47
665 0 665 0 -7 -62 c-97 -876 -757 -1633 -1615 -1852 -198 -51 -344 -68 -555
-68 -202 0 -333 16 -525 63 -872 215 -1529 963 -1635 1862 l-6 57 679 0 679 0
17 -62z"/>
</g>
</svg>
